<?xml version="1.0" encoding="UTF-8"?>
<!DOCTYPE svg PUBLIC "-//W3C//DTD SVG 1.1//EN" "http://www.w3.org/Graphics/SVG/1.1/DTD/svg11.dtd">
<!-- Creator: CorelDRAW -->
<svg xmlns="http://www.w3.org/2000/svg" xml:space="preserve" width="210mm" height="210mm" version="1.1" style="shape-rendering:geometricPrecision; text-rendering:geometricPrecision; image-rendering:optimizeQuality; fill-rule:evenodd; clip-rule:evenodd"
viewBox="0 0 21000 21000"
 xmlns:xlink="http://www.w3.org/1999/xlink"
 xmlns:xodm="http://www.corel.com/coreldraw/odm/2003">
 <defs>
  <style type="text/css">
   <![CDATA[
    .fil0 {fill:#d1d5db}
   ]]>
  </style>
 </defs>
 <g id="Layer_x0020_1">
  <metadata id="CorelCorpID_0Corel-Layer"/>
  <g id="_2233949360688">
   <path class="fil0" d="M735.5 11164.41c2.03,37.18 4.9,73.66 8.88,109.13 4.19,37.33 0.7,75.69 1.11,113.27l47.81 555.33c20.71,146.87 33.29,283.4 56.55,421.79 89,529.29 209.88,1050.7 378.32,1555.86 80.33,240.88 163.54,471.86 263.53,703.56 190.43,441.31 408.82,867.1 654.76,1279.42l591.57 864.27c110.37,147.34 359.58,459.66 485.2,585.87l177.18 186.78c24.68,25.64 28.3,37.49 51.65,62.73 21.47,23.21 39.82,39.56 62.53,62.26l369.23 358.68c25.58,22.52 36.73,26.22 62.51,51.88l197.38 176.98c225.87,215.13 823.87,650.92 1109.27,824.91 382.5,233.2 763.83,448.77 1167.07,642.32 139.77,67.09 272.64,130.73 423.32,179.81 123.14,40.11 274.69,66.15 432.41,76.56l309.69 0c138.74,-9.43 271,-31.97 381.25,-68.75l224.91 -87.06c230.02,-102.98 453.71,-263.16 611.89,-459.18 119.03,-147.49 206.93,-281.91 292.78,-455.94 208.94,-423.51 195.5,-985.93 29.6,-1423.35 -67.56,-178.13 -169.99,-338.45 -280.67,-478.44 -31.56,-39.92 -54.51,-59.87 -86.23,-100.94 -108.04,-139.89 -402.52,-328.74 -546.6,-399.7 -86.12,-42.41 -176.02,-75.44 -267.11,-117.65 -86.86,-40.25 -163.34,-81.75 -249.52,-124.83 -367.06,-183.51 -897.98,-529.77 -1186.41,-799.76l-524.93 -514.95c-369.04,-398.35 -686.51,-850.09 -929.95,-1336.99 -88.08,-176.16 -165.78,-339.86 -238.19,-520.92 -113.5,-283.77 -198.66,-572.49 -272.83,-871.04 -296.22,-1192.22 -161.65,-2473.24 262.36,-3591.61 36.43,-96.07 75.54,-176.37 114.4,-270.37 71.77,-173.64 166.53,-339.13 255.57,-503.53 41.59,-76.77 89.54,-161.05 139.3,-235.07 126.95,-188.83 250.52,-376.03 392.41,-553.88 30.7,-38.48 56.36,-69.6 87.68,-109.89 109.4,-140.7 234.39,-272.1 360.7,-398.41 33.72,-33.73 60.02,-59.82 93.5,-93.68 94.9,-95.99 200.86,-180.37 301.74,-270.2 271.88,-242.1 580.7,-440.08 891.02,-627.21 79.2,-47.75 158.6,-83.95 243.1,-131.25 252.36,-141.26 528.05,-247.34 798.7,-345.17 94.76,-34.25 180.39,-60.66 283.17,-91.18 307.45,-91.32 619.17,-160.12 944.43,-199.44 111.38,-13.47 236.62,-31.95 351.87,-32.9l369.86 -15.02c55.42,-8.67 273.61,1.58 358.22,4.12 47.09,1.4 44.62,7.11 83.43,10.16 326.35,25.59 596.91,50.95 922.85,127.42 304.27,71.39 587.63,147.85 871.08,262.39 49.37,19.95 85.71,33.32 133.66,53.52 176.85,74.51 352.66,147.2 518.88,240.23 44.14,24.71 83.97,44.15 127.47,70.11 315.07,188.05 616.37,386.03 901.96,616.27 225.32,181.66 438.16,382.5 628.53,598.53 16.36,18.57 29.44,28.56 46.92,46.67 22.27,23.05 22.69,28.91 41.87,51.72 18.36,21.84 32.89,31.64 50.46,53.52 57.08,71.08 112.84,132.42 167.82,206.55l317.38 441.72c152.09,237.21 279.8,483.16 407.59,736.28 63.33,125.44 114.84,262.08 167.85,393.69 252.2,626.12 404.05,1387.68 404.05,2081.27 0,546.84 -50.14,1061.17 -168.37,1537.03 -83.94,337.84 -198.6,662.19 -329.28,980.97 -18.83,45.94 -38.11,91.1 -60.29,137.29 -239.96,499.92 -527.12,960.28 -884.38,1382.56 -123.59,146.08 -366.07,418.15 -505.33,534.56l-353.76 301.36c-37.92,30.7 -65.57,52.41 -105.16,82.01 -332.4,248.51 -681.54,455.62 -1052.76,642.25 -129.03,64.87 -266.13,112.2 -395.2,176.73 -611.81,305.9 -1012.11,938.52 -1012.11,1639.59 0,438.81 155.86,875.71 434.24,1187.96 157.24,176.37 334.86,331.16 550.14,437.76 365.36,180.91 538.24,193.4 893.54,194.07l129.05 0c349.9,0 749.27,-213.46 1064.14,-370.89 521.66,-260.83 1027.7,-557.29 1493.97,-908.16 489.62,-368.44 846.87,-696.79 1271.25,-1120.47l171.11 -182.45c369.09,-441.55 525.65,-598.78 895.29,-1153.28 158.01,-237.03 316.03,-490.19 449.36,-746.5 81.56,-156.81 173.64,-311.92 240.49,-477.03l148.59 -329.75c97.77,-234.57 186.54,-457.7 267.23,-699.86 210.95,-633.06 354.82,-1283.95 442.7,-1949.03 9.43,-71.41 20.93,-146.94 23.85,-215.32 3.08,-72.2 17.59,-150.62 20.85,-218.32 21.12,-438.34 20.82,-701.2 20.82,-1143.85 0,-105.58 -11.2,-188.1 -10.29,-280.87 0.9,-92.54 -18.65,-190.12 -20.91,-280.67 -9.56,-382.91 -184.86,-1228.08 -264.14,-1545.25 -188.45,-753.97 -482.65,-1474.24 -838,-2156.86l-218.49 -384.64c-18.72,-34.89 -34.17,-54.6 -55.36,-90.21l-298.18 -460.94c-117.78,-177.84 -252.81,-351.17 -386.16,-518.54 -90.81,-113.99 -177.67,-218.8 -272.08,-331.05 -45.24,-53.79 -102.36,-106.46 -142.51,-159.06 -114.46,-149.98 -585.1,-606.28 -751.77,-745.65 -220.69,-184.52 -436.13,-365.92 -666.91,-539.35 -348.17,-261.66 -711.19,-490.29 -1094.49,-704.5 -68.46,-38.25 -126.87,-68.85 -197.45,-104.13 -202.3,-101.11 -401.23,-205.78 -611.05,-293.64 -286.87,-120.12 -558.44,-228.92 -865,-330.85 -156.98,-52.2 -303.63,-90.97 -465.2,-137.94 -459.96,-133.72 -1051.38,-245.77 -1524.11,-285.28 -83.17,-6.95 -190.24,-19.79 -272.8,-28.76 -143.43,-15.6 -760.03,-35.43 -863.09,-23.85 -228.44,25.67 -484.67,-4.63 -710.02,28.3 -42.06,6.14 -107.5,11.35 -141.96,14.02 -617.45,47.95 -1188.6,172 -1767.01,333.56 -383.92,107.23 -746.23,250.77 -1112.67,395.15 -71.51,28.18 -141.34,64.46 -209.43,92.13l-199.66 91.5c-71.05,35.82 -129.79,65.02 -200.97,100.6 -261.35,130.67 -525.86,274.01 -768.87,437.39 -123.42,82.98 -244.3,152.56 -363.68,239.46 -119.04,86.66 -236.37,164.07 -348.98,254.15l-499.26 405.44c-150.21,120.32 -469.24,436.37 -614.73,581.13 -30.51,30.35 -38.73,48.73 -67.23,78.35 -124.61,129.46 -249.79,256.46 -360.81,398.31l-270.48 332.64c-129.33,171.95 -256.91,339.33 -376.04,518.26 -42.75,64.22 -80.57,118.08 -119.04,182.52l-230.35 372.78c-19.03,31.73 -34.79,59.64 -53.14,92.45l-107.76 193.8c-198,367.68 -362.28,747.09 -518.87,1134.54 -29.97,74.14 -55.85,143.38 -81.24,220.33 -245.3,743.38 -427.48,1403.92 -504.63,2209.46 -27.14,283.47 -52.95,552.82 -52.95,851.75l0 547.52z"/>
   <path class="fil0" d="M6839.61 10668.89c0,658.26 29.49,839.6 219.65,1412.95 107.39,323.79 386.41,808.58 609.93,1064.28l275.29 296.65c1479.56,1479.56 3991.53,1369.7 5356,-254.15 168.91,-201.02 242.98,-310.77 379.66,-535.45 101.9,-167.51 223.73,-439.7 286.57,-628.52 40.77,-122.49 70.82,-220.83 104.27,-353.27 145.96,-577.92 130.89,-1322.17 -44.44,-1887.75 -190.43,-614.33 -476.62,-1113.43 -934.65,-1571.46 -590.92,-590.92 -1468.77,-1068.48 -2623.1,-1068.48 -630.25,0 -1156.18,162.14 -1615.28,391.69 -54.28,27.14 -100.88,47.87 -150.64,78.14 -411.46,250.32 -523.59,338.1 -872.78,687.04 -20.59,20.57 -38.3,35.91 -57.11,57.27 -22.12,25.11 -27.36,36.35 -52.08,62.31 -35.29,37.05 -66.06,79.17 -99,119.37l-353.94 540.37 -144.64 302.5c-68.72,173.53 -123.53,317.51 -171.55,504.38 -54.2,210.94 -112.16,517.75 -112.16,782.13z"/>
  </g>
 </g>
</svg>
